<?xml version="1.0" ?><!DOCTYPE svg  PUBLIC '-//W3C//DTD SVG 1.1//EN'  'http://www.w3.org/Graphics/SVG/1.1/DTD/svg11.dtd'><svg enable-background="new 0 0 24 24" height="24px" id="Layer_1" version="1.1" viewBox="0 0 24 24" width="24px" xml:space="preserve" xmlns="http://www.w3.org/2000/svg" xmlns:xlink="http://www.w3.org/1999/xlink"><g><g id="path9-6_3_"><path d="M12,22.8c-6.3,0-11.5-4-11.5-8.9c0-0.2,0-0.4,0-0.6c0-0.1,0-0.3,0-0.4V4.7c0-1.9,1.5-3.4,3.4-3.4h16.2    c1.9,0,3.4,1.5,3.4,3.4v8.1c0,0.2,0,0.3,0,0.5c0,0.2,0,0.4,0,0.6C23.5,18.8,18.3,22.8,12,22.8z M3.9,2.2c-1.3,0-2.4,1.1-2.4,2.4    v8.1c0,0.1,0,0.2,0,0.4c0,0,0,0.1,0,0.1c0,0.2,0,0.4,0,0.6c0,4.4,4.7,7.9,10.5,7.9s10.5-3.5,10.5-7.9c0-0.2,0-0.4,0-0.6    c0,0,0-0.1,0-0.1c0-0.1,0-0.2,0-0.4V4.7c0-1.3-1.1-2.4-2.4-2.4H3.9z"/></g><g><path d="M12,16.8c-0.5,0-1-0.2-1.4-0.6l-5.7-5.7c-0.8-0.8-0.8-2,0-2.8c0.7-0.7,2-0.7,2.8,0l4.3,4.3l4.3-4.3c0.7-0.7,2-0.7,2.8,0    c0.8,0.8,0.8,2,0,2.8l-5.7,5.7C13,16.6,12.6,16.8,12,16.8v-0.5l0-0.5c0.3,0,0.5-0.1,0.7-0.3l5.7-5.7c0.4-0.4,0.4-1,0-1.4    c-0.4-0.4-1-0.4-1.4,0l-4.7,4.7c-0.2,0.2-0.5,0.2-0.7,0L7,8.5c-0.4-0.4-1-0.4-1.4,0c-0.4,0.4-0.4,1,0,1.4l5.7,5.7    c0.2,0.2,0.4,0.3,0.7,0.3V16.8z"/></g></g></svg>