<?xml version="1.0" encoding="UTF-8"?>
<!-- Generated by Pixelmator Pro Trial 2.4.2 -->
<svg width="24" height="24" viewBox="0 0 24 24" xmlns="http://www.w3.org/2000/svg" xmlns:xlink="http://www.w3.org/1999/xlink">
    <g id="Gruppe">
        <g id="path9-63">
            <path id="Pfad" fill="#da4f59" stroke="none" d="M 12 22.799999 C 5.7 22.799999 0.5 18.799999 0.5 13.9 C 0.5 13.7 0.5 13.5 0.5 13.3 C 0.5 13.2 0.5 13 0.5 12.9 L 0.5 4.700001 C 0.5 2.799999 2 1.299999 3.9 1.299999 L 20.1 1.299999 C 22 1.299999 23.5 2.799999 23.5 4.700001 L 23.5 12.8 C 23.5 13 23.5 13.1 23.5 13.3 C 23.5 13.5 23.5 13.7 23.5 13.9 C 23.5 18.799999 18.299999 22.799999 12 22.799999 Z M 3.9 2.200001 C 2.6 2.200001 1.5 3.299999 1.5 4.6 L 1.5 12.7 C 1.5 12.8 1.5 12.9 1.5 13.1 C 1.5 13.1 1.5 13.2 1.5 13.2 C 1.5 13.4 1.5 13.6 1.5 13.8 C 1.5 18.200001 6.2 21.700001 12 21.700001 C 17.799999 21.700001 22.5 18.200001 22.5 13.8 C 22.5 13.6 22.5 13.4 22.5 13.2 C 22.5 13.2 22.5 13.1 22.5 13.1 C 22.5 13 22.5 12.9 22.5 12.7 L 22.5 4.700001 C 22.5 3.4 21.4 2.299999 20.1 2.299999 L 3.9 2.299999 Z"/>
        </g>
        <g id="g1">
            <path id="path1" fill="#da4f59" stroke="none" d="M 12 16.799999 C 11.5 16.799999 11 16.6 10.6 16.200001 L 4.9 10.5 C 4.1 9.7 4.1 8.5 4.9 7.700001 C 5.6 7 6.9 7 7.7 7.700001 L 12 12 L 16.299999 7.700001 C 17 7 18.299999 7 19.1 7.700001 C 19.9 8.5 19.9 9.7 19.1 10.5 L 13.4 16.200001 C 13 16.6 12.6 16.799999 12 16.799999 L 12 16.299999 L 12 15.8 C 12.3 15.8 12.5 15.7 12.7 15.5 L 18.4 9.8 C 18.799999 9.4 18.799999 8.8 18.4 8.4 C 18 8 17.4 8 17 8.4 L 12.3 13.1 C 12.1 13.3 11.8 13.3 11.6 13.1 L 7 8.5 C 6.6 8.1 6 8.1 5.6 8.5 C 5.2 8.9 5.2 9.5 5.6 9.9 L 11.3 15.6 C 11.5 15.8 11.7 15.9 12 15.9 L 12 16.799999 Z"/>
        </g>
    </g>
</svg>
