<?xml version="1.0" encoding="UTF-8"?>
<!-- Generated by Pixelmator Pro Trial 2.4.2 -->
<svg width="24" height="24" viewBox="0 0 24 24" xmlns="http://www.w3.org/2000/svg" xmlns:xlink="http://www.w3.org/1999/xlink">
    <g id="Gruppe">
        <g id="path9-63">
            <path id="Pfad" fill="#bebebe" stroke="none" d="M 12 22.799999 C 5.7 22.799999 0.5 18.799999 0.5 13.9 C 0.5 13.7 0.5 13.5 0.5 13.3 C 0.5 13.2 0.5 13 0.5 12.9 L 0.5 4.700001 C 0.5 2.799999 2 1.299999 3.9 1.299999 L 20.1 1.299999 C 22 1.299999 23.5 2.799999 23.5 4.700001 L 23.5 12.8 C 23.5 13 23.5 13.1 23.5 13.3 C 23.5 13.5 23.5 13.7 23.5 13.9 C 23.5 18.799999 18.299999 22.799999 12 22.799999 Z M 3.9 2.200001 C 2.6 2.200001 1.5 3.299999 1.5 4.6 L 1.5 12.7 C 1.5 12.8 1.5 12.9 1.5 13.1 C 1.5 13.1 1.5 13.2 1.5 13.2 C 1.5 13.4 1.5 13.6 1.5 13.8 C 1.5 18.200001 6.2 21.700001 12 21.700001 C 17.799999 21.700001 22.5 18.200001 22.5 13.8 C 22.5 13.6 22.5 13.4 22.5 13.2 C 22.5 13.2 22.5 13.1 22.5 13.1 C 22.5 13 22.5 12.9 22.5 12.7 L 22.5 4.700001 C 22.5 3.4 21.4 2.299999 20.1 2.299999 L 3.9 2.299999 Z"/>
        </g>
        <g id="g1">
            <path id="path1" fill="#bebebe" stroke="none" d="M 12.15 9 C 11.835065 9 11.52013 8.878962 11.268182 8.636884 L 7.677922 5.187273 C 7.174026 4.703117 7.174026 3.976883 7.677922 3.492727 C 8.118831 3.069092 8.937662 3.069092 9.441558 3.492727 L 12.15 6.095066 L 14.858441 3.492727 C 15.299351 3.069092 16.118181 3.069092 16.622078 3.492727 C 17.125975 3.976883 17.125975 4.703117 16.622078 5.187273 L 13.031818 8.636884 C 12.77987 8.878962 12.527923 9 12.15 9 L 12.15 8.697403 L 12.15 8.394806 C 12.338962 8.394806 12.464935 8.334286 12.590909 8.213247 L 16.18117 4.763638 C 16.433117 4.521559 16.433117 4.158442 16.18117 3.916363 C 15.929221 3.674286 15.551298 3.674286 15.299351 3.916363 L 12.338962 6.76078 C 12.212987 6.881819 12.024026 6.881819 11.898052 6.76078 L 9.000649 3.976883 C 8.748701 3.734806 8.370779 3.734806 8.118831 3.976883 C 7.866883 4.218962 7.866883 4.582079 8.118831 4.824156 L 11.709091 8.273767 C 11.835065 8.394806 11.961039 8.455325 12.15 8.455325 L 12.15 9 Z"/>
            <path id="Pfad-Kopie" fill="#bebebe" stroke="none" d="M 12.15 15 C 11.835065 15 11.52013 14.878962 11.268182 14.636884 L 7.677922 11.187273 C 7.174026 10.703117 7.174026 9.976883 7.677922 9.492728 C 8.118831 9.069091 8.937662 9.069091 9.441558 9.492728 L 12.15 12.095065 L 14.858441 9.492728 C 15.299351 9.069091 16.118181 9.069091 16.622078 9.492728 C 17.125975 9.976883 17.125975 10.703117 16.622078 11.187273 L 13.031818 14.636884 C 12.77987 14.878962 12.527923 15 12.15 15 L 12.15 14.697403 L 12.15 14.394806 C 12.338962 14.394806 12.464935 14.334286 12.590909 14.213247 L 16.18117 10.763637 C 16.433117 10.521559 16.433117 10.158442 16.18117 9.916364 C 15.929221 9.674286 15.551298 9.674286 15.299351 9.916364 L 12.338962 12.760779 C 12.212987 12.881819 12.024026 12.881819 11.898052 12.760779 L 9.000649 9.976883 C 8.748701 9.734805 8.370779 9.734805 8.118831 9.976883 C 7.866883 10.218961 7.866883 10.582078 8.118831 10.824156 L 11.709091 14.273767 C 11.835065 14.394806 11.961039 14.455325 12.15 14.455325 L 12.15 15 Z"/>
            <path id="Pfad-Kopie-2" fill="#bebebe" stroke="none" d="M 12.15 21 C 11.835065 21 11.52013 20.878962 11.268182 20.636885 L 7.677922 17.187273 C 7.174026 16.703117 7.174026 15.976883 7.677922 15.492728 C 8.118831 15.069091 8.937662 15.069091 9.441558 15.492728 L 12.15 18.095066 L 14.858441 15.492728 C 15.299351 15.069091 16.118181 15.069091 16.622078 15.492728 C 17.125975 15.976883 17.125975 16.703117 16.622078 17.187273 L 13.031818 20.636885 C 12.77987 20.878962 12.527923 21 12.15 21 L 12.15 20.697403 L 12.15 20.394806 C 12.338962 20.394806 12.464935 20.334286 12.590909 20.213247 L 16.18117 16.763638 C 16.433117 16.521559 16.433117 16.158442 16.18117 15.916364 C 15.929221 15.674286 15.551298 15.674286 15.299351 15.916364 L 12.338962 18.76078 C 12.212987 18.881819 12.024026 18.881819 11.898052 18.76078 L 9.000649 15.976883 C 8.748701 15.734805 8.370779 15.734805 8.118831 15.976883 C 7.866883 16.21896 7.866883 16.582077 8.118831 16.824156 L 11.709091 20.273767 C 11.835065 20.394806 11.961039 20.455324 12.15 20.455324 L 12.15 21 Z"/>
        </g>
    </g>
</svg>
